<svg width="24" height="24" viewBox="0 0 24 24" fill="none" xmlns="http://www.w3.org/2000/svg">
<mask id="mask0_128_1564" style="mask-type:alpha" maskUnits="userSpaceOnUse" x="0" y="0" width="24" height="24">
<rect width="24" height="24" fill="#D9D9D9"/>
</mask>
<g mask="url(#mask0_128_1564)">
<path d="M19.9845 17.1808C20.4025 17.4013 20.7551 17.3503 21.0422 17.028C21.3294 16.7055 21.3692 16.3449 21.1615 15.9462L19.4807 12.8038L18.123 16.2155L19.9845 17.1808ZM14.8307 16.25H16.473L18.8923 10.2615C18.9936 10.0063 19.0003 9.79767 18.9125 9.6355C18.8247 9.47333 18.6859 9.35125 18.4963 9.26925L16.4962 8.46925C16.2692 8.38075 16.0497 8.38142 15.8375 8.47125C15.6253 8.56092 15.5026 8.72558 15.4693 8.96525L14.8307 16.25ZM7.527 16.25H9.16925L8.53075 8.927C8.49742 8.70517 8.37792 8.55125 8.17225 8.46525C7.96642 8.37942 7.74358 8.38075 7.50375 8.46925L5.50375 9.26925C5.28708 9.35775 5.15125 9.49267 5.09625 9.674C5.04108 9.8555 5.05775 10.0642 5.14625 10.3L7.527 16.25ZM4.0155 17.1808L5.877 16.2155L4.5385 12.8038L2.8385 15.9845C2.618 16.3897 2.65933 16.7423 2.9625 17.0423C3.26567 17.3423 3.61667 17.3884 4.0155 17.1808ZM10.6692 16.25H13.3307L14.1 7.56925C14.1333 7.34225 14.0766 7.149 13.9298 6.9895C13.7831 6.82983 13.5898 6.75 13.35 6.75H10.65C10.459 6.75 10.2805 6.825 10.1145 6.975C9.94833 7.125 9.87683 7.31025 9.9 7.53075L10.6692 16.25ZM3.48975 18.7693C2.84975 18.7693 2.3165 18.5388 1.89 18.0778C1.46333 17.6169 1.25 17.0667 1.25 16.427C1.25 16.2335 1.276 16.0441 1.328 15.8588C1.37983 15.6734 1.44742 15.4923 1.53075 15.3155L3.7885 11C3.5615 10.3782 3.55217 9.76308 3.7605 9.15475C3.96883 8.54642 4.36408 8.12175 4.94625 7.88075L6.94625 7.08075C7.20525 6.97825 7.46742 6.91833 7.73275 6.901C7.99808 6.88367 8.24742 6.93208 8.48075 7.04625C8.62442 6.54358 8.89175 6.11858 9.28275 5.77125C9.67375 5.42375 10.1344 5.25 10.6648 5.25H13.35C13.877 5.25 14.3376 5.41892 14.7318 5.75675C15.1259 6.09458 15.4012 6.51158 15.5577 7.00775C15.7717 6.89742 16.0115 6.858 16.277 6.8895C16.5423 6.92083 16.8013 6.98458 17.0538 7.08075L19.0538 7.88075C19.6564 8.12175 20.0718 8.54483 20.3 9.15C20.5282 9.75517 20.5051 10.3552 20.2307 10.95L22.4885 15.2655C22.5757 15.4295 22.6443 15.598 22.6943 15.771C22.7442 15.944 22.7693 16.1242 22.7693 16.3115C22.7693 16.9973 22.5343 17.5784 22.0645 18.0548C21.5945 18.5311 21.018 18.7693 20.335 18.7693C20.168 18.7693 20.0047 18.75 19.845 18.7115C19.6852 18.673 19.5253 18.6153 19.3655 18.5385L17.777 17.75H6.19225L4.7345 18.5193C4.5435 18.6231 4.34158 18.6907 4.12875 18.722C3.91592 18.7535 3.70292 18.7693 3.48975 18.7693Z" fill="#9E9E9E"/>
</g>
</svg>
