<svg width="12" height="12" viewBox="0 0 12 12" fill="none" xmlns="http://www.w3.org/2000/svg">
<mask id="mask0_667_5410" style="mask-type:alpha" maskUnits="userSpaceOnUse" x="0" y="0" width="12" height="12">
<rect width="12" height="12" fill="#D9D9D9"/>
</mask>
<g mask="url(#mask0_667_5410)">
<path d="M5.9945 8.80762C6.13725 8.80762 6.25783 8.75838 6.35625 8.65988C6.45467 8.56129 6.50388 8.44058 6.50388 8.29775C6.50388 8.155 6.45458 8.03442 6.356 7.936C6.25742 7.83767 6.13675 7.7885 5.994 7.7885C5.85125 7.7885 5.73067 7.83779 5.63225 7.93638C5.53383 8.03496 5.48462 8.15563 5.48462 8.29838C5.48462 8.44112 5.53392 8.56171 5.6325 8.66013C5.73108 8.75846 5.85175 8.80762 5.9945 8.80762ZM6.00087 10.75C5.34387 10.75 4.72633 10.6253 4.14825 10.376C3.57017 10.1267 3.06733 9.78829 2.63975 9.36088C2.21217 8.93346 1.87362 8.43083 1.62412 7.853C1.37471 7.27517 1.25 6.65779 1.25 6.00087C1.25 5.34387 1.37467 4.72633 1.624 4.14825C1.87333 3.57017 2.21171 3.06733 2.63913 2.63975C3.06654 2.21217 3.56917 1.87362 4.147 1.62412C4.72483 1.37471 5.34221 1.25 5.99913 1.25C6.65613 1.25 7.27367 1.37467 7.85175 1.624C8.42983 1.87333 8.93267 2.21171 9.36025 2.63913C9.78783 3.06654 10.1264 3.56917 10.3759 4.147C10.6253 4.72483 10.75 5.34221 10.75 5.99913C10.75 6.65613 10.6253 7.27367 10.376 7.85175C10.1267 8.42983 9.78829 8.93267 9.36088 9.36025C8.93346 9.78783 8.43083 10.1264 7.853 10.3759C7.27517 10.6253 6.65779 10.75 6.00087 10.75ZM6 10C7.11667 10 8.0625 9.6125 8.8375 8.8375C9.6125 8.0625 10 7.11667 10 6C10 4.88333 9.6125 3.9375 8.8375 3.1625C8.0625 2.3875 7.11667 2 6 2C4.88333 2 3.9375 2.3875 3.1625 3.1625C2.3875 3.9375 2 4.88333 2 6C2 7.11667 2.3875 8.0625 3.1625 8.8375C3.9375 9.6125 4.88333 10 6 10ZM6.0405 3.85963C6.27117 3.85963 6.47079 3.93225 6.63938 4.0775C6.80804 4.22275 6.89238 4.40429 6.89238 4.62213C6.89238 4.80546 6.8385 4.96954 6.73075 5.11438C6.62308 5.25929 6.5 5.39425 6.3615 5.51925C6.18 5.68025 6.02021 5.85737 5.88213 6.05062C5.74404 6.24379 5.67021 6.45896 5.66062 6.69613C5.65737 6.78721 5.68942 6.8635 5.75675 6.925C5.82408 6.9865 5.90258 7.01725 5.99225 7.01725C6.08842 7.01725 6.16983 6.98521 6.2365 6.92112C6.30317 6.85704 6.34579 6.77854 6.36438 6.68563C6.39771 6.51379 6.46871 6.36075 6.57737 6.2265C6.68604 6.09217 6.80375 5.96446 6.9305 5.84338C7.11275 5.66571 7.27179 5.47204 7.40762 5.26237C7.54354 5.05262 7.6115 4.81871 7.6115 4.56062C7.6115 4.16446 7.45542 3.83896 7.14325 3.58412C6.83108 3.32937 6.46667 3.202 6.05 3.202C5.75258 3.202 5.47213 3.26783 5.20863 3.3995C4.94521 3.53125 4.74008 3.72342 4.59325 3.976C4.54775 4.05358 4.53317 4.13521 4.5495 4.22087C4.56575 4.30662 4.60971 4.37171 4.68138 4.41612C4.77263 4.46687 4.86633 4.48138 4.9625 4.45963C5.05867 4.43779 5.14037 4.383 5.20762 4.29525C5.30896 4.16383 5.43158 4.05837 5.5755 3.97887C5.71942 3.89937 5.87442 3.85963 6.0405 3.85963Z" fill="#212121"/>
</g>
</svg>
