<svg width="24" height="24" viewBox="0 0 24 24" fill="none" xmlns="http://www.w3.org/2000/svg">
<mask id="mask0_531_8490" style="mask-type:alpha" maskUnits="userSpaceOnUse" x="0" y="0" width="24" height="24">
<rect width="24" height="24" fill="#D9D9D9"/>
</mask>
<g mask="url(#mask0_531_8490)">
<path d="M6.68723 20C6.21574 20 5.81667 19.8374 5.49 19.5121C5.16333 19.1868 5 18.7894 5 18.32V9.59842C5 9.12894 5.16333 8.73157 5.49 8.40629C5.81667 8.08102 6.21574 7.91838 6.68723 7.91838H8.37447C8.57296 7.91838 8.73924 7.98514 8.87333 8.11866C9.00727 8.25202 9.07423 8.4176 9.07423 8.6154C9.07423 8.8132 9.00727 8.97878 8.87333 9.11214C8.73924 9.24566 8.57296 9.31241 8.37447 9.31241H6.68723C6.61537 9.31241 6.54957 9.34223 6.48983 9.40186C6.42994 9.46134 6.4 9.52686 6.4 9.59842V18.32C6.4 18.3915 6.42994 18.457 6.48983 18.5165C6.54957 18.5762 6.61537 18.606 6.68723 18.606H17.3128C17.3846 18.606 17.4504 18.5762 17.5102 18.5165C17.5701 18.457 17.6 18.3915 17.6 18.32V9.59842C17.6 9.52686 17.5701 9.46134 17.5102 9.40186C17.4504 9.34223 17.3846 9.31241 17.3128 9.31241H15.6255C15.427 9.31241 15.2608 9.24566 15.1267 9.11214C14.9927 8.97878 14.9258 8.8132 14.9258 8.6154C14.9258 8.4176 14.9927 8.25202 15.1267 8.11866C15.2608 7.98514 15.427 7.91838 15.6255 7.91838H17.3128C17.7843 7.91838 18.1833 8.08102 18.51 8.40629C18.8367 8.73157 19 9.12894 19 9.59842V18.32C19 18.7894 18.8367 19.1868 18.51 19.5121C18.1833 19.8374 17.7843 20 17.3128 20H6.68723ZM11.3 5.33408L10.0652 6.56361C9.92629 6.70193 9.76381 6.77016 9.57777 6.7683C9.39172 6.7666 9.22629 6.69365 9.08147 6.54944C8.94629 6.40524 8.87629 6.24198 8.87147 6.05967C8.8668 5.87736 8.9368 5.71418 9.08147 5.57013L11.4094 3.25209C11.5782 3.08403 11.7751 3 12 3C12.2249 3 12.4218 3.08403 12.5906 3.25209L14.9185 5.57013C15.0476 5.69869 15.1138 5.858 15.1169 6.04805C15.1198 6.23811 15.0537 6.40524 14.9185 6.54944C14.7737 6.69365 14.6073 6.76575 14.4194 6.76575C14.2317 6.76575 14.0654 6.69365 13.9206 6.54944L12.7 5.33408V13.0298C12.7 13.2276 12.633 13.3932 12.4989 13.5266C12.3649 13.6601 12.1986 13.7269 12 13.7269C11.8014 13.7269 11.6351 13.6601 11.5011 13.5266C11.367 13.3932 11.3 13.2276 11.3 13.0298V5.33408Z" fill="#212121"/>
</g>
</svg>
