<svg width="24" height="24" viewBox="0 0 24 24" fill="none" xmlns="http://www.w3.org/2000/svg">
<mask id="mask0_499_1435" style="mask-type:alpha" maskUnits="userSpaceOnUse" x="0" y="0" width="24" height="24">
<rect width="24" height="24" fill="#D9D9D9"/>
</mask>
<g mask="url(#mask0_499_1435)">
<path d="M3.80775 21C3.30258 21 2.875 20.825 2.525 20.475C2.175 20.125 2 19.6974 2 19.1923V7.80775C2 7.30258 2.175 6.875 2.525 6.525C2.875 6.175 3.30258 6 3.80775 6H6.8615L8.16925 4.58275C8.33458 4.40342 8.53383 4.2615 8.767 4.157C9 4.05233 9.24433 4 9.5 4H13.5577C13.7702 4 13.9483 4.07192 14.092 4.21575C14.2358 4.35958 14.3077 4.53775 14.3077 4.75025C14.3077 4.96292 14.2358 5.141 14.092 5.2845C13.9483 5.42817 13.7702 5.5 13.5577 5.5H9.3655L7.53075 7.5H3.80775C3.71792 7.5 3.64417 7.52883 3.5865 7.5865C3.52883 7.64417 3.5 7.71792 3.5 7.80775V19.1923C3.5 19.2821 3.52883 19.3558 3.5865 19.4135C3.64417 19.4712 3.71792 19.5 3.80775 19.5H19.1923C19.2821 19.5 19.3558 19.4712 19.4135 19.4135C19.4712 19.3558 19.5 19.2821 19.5 19.1923V11.4423C19.5 11.2298 19.5719 11.0517 19.7157 10.908C19.8596 10.7642 20.0378 10.6923 20.2502 10.6923C20.4629 10.6923 20.641 10.7642 20.7845 10.908C20.9282 11.0517 21 11.2298 21 11.4423V19.1923C21 19.6974 20.825 20.125 20.475 20.475C20.125 20.825 19.6974 21 19.1923 21H3.80775ZM18.5 6.5H17.25C17.0375 6.5 16.8593 6.42808 16.7155 6.28425C16.5718 6.14042 16.5 5.96225 16.5 5.74975C16.5 5.53708 16.5718 5.359 16.7155 5.2155C16.8593 5.07183 17.0375 5 17.25 5H18.5V3.75C18.5 3.5375 18.5719 3.35942 18.7157 3.21575C18.8596 3.07192 19.0378 3 19.2502 3C19.4629 3 19.641 3.07192 19.7845 3.21575C19.9282 3.35942 20 3.5375 20 3.75V5H21.25C21.4625 5 21.6406 5.07192 21.7843 5.21575C21.9281 5.35958 22 5.53775 22 5.75025C22 5.96292 21.9281 6.141 21.7843 6.2845C21.6406 6.42817 21.4625 6.5 21.25 6.5H20V7.75C20 7.9625 19.9281 8.14067 19.7843 8.2845C19.6404 8.42817 19.4622 8.5 19.2498 8.5C19.0371 8.5 18.859 8.42817 18.7155 8.2845C18.5718 8.14067 18.5 7.9625 18.5 7.75V6.5ZM11.5 17.6152C12.6475 17.6152 13.6202 17.2163 14.4183 16.4183C15.2163 15.6202 15.6152 14.6475 15.6152 13.5C15.6152 12.3525 15.2163 11.3798 14.4183 10.5818C13.6202 9.78375 12.6475 9.38475 11.5 9.38475C10.3525 9.38475 9.37975 9.78375 8.58175 10.5818C7.78375 11.3798 7.38475 12.3525 7.38475 13.5C7.38475 14.6475 7.78375 15.6202 8.58175 16.4183C9.37975 17.2163 10.3525 17.6152 11.5 17.6152ZM11.5 16.1155C10.7615 16.1155 10.141 15.8642 9.6385 15.3615C9.13583 14.859 8.8845 14.2385 8.8845 13.5C8.8845 12.7615 9.13583 12.141 9.6385 11.6385C10.141 11.1358 10.7615 10.8845 11.5 10.8845C12.2385 10.8845 12.859 11.1358 13.3615 11.6385C13.8642 12.141 14.1155 12.7615 14.1155 13.5C14.1155 14.2385 13.8642 14.859 13.3615 15.3615C12.859 15.8642 12.2385 16.1155 11.5 16.1155Z" fill="#9E9E9E"/>
</g>
</svg>
