<svg width="25" height="24" viewBox="0 0 25 24" fill="none" xmlns="http://www.w3.org/2000/svg">
<mask id="mask0_288_790" style="mask-type:alpha" maskUnits="userSpaceOnUse" x="0" y="0" width="25" height="24">
<rect x="0.166504" width="24" height="24" fill="#D9D9D9"/>
</mask>
<g mask="url(#mask0_288_790)">
<path d="M5.1665 18.0423C6.0665 17.1589 7.11234 16.4631 8.304 15.9548C9.49567 15.4464 10.7832 15.1923 12.1665 15.1923C13.5498 15.1923 14.8373 15.4464 16.029 15.9548C17.2207 16.4631 18.2665 17.1589 19.1665 18.0423V5.30775C19.1665 5.23075 19.1344 5.16025 19.0703 5.09625C19.0063 5.03208 18.9358 5 18.8588 5H5.47425C5.39725 5 5.32675 5.03208 5.26275 5.09625C5.19859 5.16025 5.1665 5.23075 5.1665 5.30775V18.0423ZM12.1665 13.0385C13.069 13.0385 13.8363 12.7225 14.4685 12.0905C15.1005 11.4583 15.4165 10.691 15.4165 9.7885C15.4165 8.886 15.1005 8.11867 14.4685 7.4865C13.8363 6.8545 13.069 6.5385 12.1665 6.5385C11.264 6.5385 10.4967 6.8545 9.8645 7.4865C9.2325 8.11867 8.9165 8.886 8.9165 9.7885C8.9165 10.691 9.2325 11.4583 9.8645 12.0905C10.4967 12.7225 11.264 13.0385 12.1665 13.0385ZM5.47425 20.5C4.96909 20.5 4.5415 20.325 4.1915 19.975C3.8415 19.625 3.6665 19.1974 3.6665 18.6923V5.30775C3.6665 4.80258 3.8415 4.375 4.1915 4.025C4.5415 3.675 4.96909 3.5 5.47425 3.5H18.8588C19.3639 3.5 19.7915 3.675 20.1415 4.025C20.4915 4.375 20.6665 4.80258 20.6665 5.30775V18.6923C20.6665 19.1974 20.4915 19.625 20.1415 19.975C19.7915 20.325 19.3639 20.5 18.8588 20.5H5.47425ZM6.3435 19H17.9895C17.1408 18.2218 16.2156 17.6427 15.2138 17.2625C14.2118 16.8823 13.196 16.6923 12.1665 16.6923C11.1498 16.6923 10.1322 16.8823 9.1135 17.2625C8.095 17.6427 7.17167 18.2218 6.3435 19ZM12.1665 11.5385C11.6857 11.5385 11.2738 11.367 10.931 11.024C10.588 10.6812 10.4165 10.2693 10.4165 9.7885C10.4165 9.30767 10.588 8.89583 10.931 8.553C11.2738 8.21 11.6857 8.0385 12.1665 8.0385C12.6473 8.0385 13.0592 8.21 13.402 8.553C13.745 8.89583 13.9165 9.30767 13.9165 9.7885C13.9165 10.2693 13.745 10.6812 13.402 11.024C13.0592 11.367 12.6473 11.5385 12.1665 11.5385Z" fill="#9E9E9E"/>
</g>
</svg>
