<svg width="24" height="24" viewBox="0 0 24 24" fill="none" xmlns="http://www.w3.org/2000/svg">
<mask id="mask0_649_2472" style="mask-type:alpha" maskUnits="userSpaceOnUse" x="0" y="0" width="24" height="24">
<rect width="24" height="24" fill="#D9D9D9"/>
</mask>
<g mask="url(#mask0_649_2472)">
<path d="M20.213 12.8532H17.9932C17.7698 12.8532 17.5829 12.7735 17.4323 12.6142C17.2816 12.455 17.2062 12.2574 17.2062 12.0213C17.2062 11.7852 17.2816 11.5876 17.4323 11.4285C17.5829 11.2691 17.7698 11.1895 17.9932 11.1895H20.213C20.4363 11.1895 20.6233 11.2691 20.7739 11.4285C20.9246 11.5876 21 11.7852 21 12.0213C21 12.2574 20.9246 12.455 20.7739 12.6142C20.6233 12.7735 20.4363 12.8532 20.213 12.8532ZM15.8481 17.2493C15.9826 17.0544 16.1545 16.942 16.3638 16.9121C16.573 16.8823 16.7698 16.9385 16.9541 17.0807L18.7238 18.4862C18.9081 18.6286 19.0143 18.8103 19.0425 19.0314C19.0708 19.2525 19.0177 19.4605 18.883 19.6553C18.7485 19.8499 18.5767 19.9622 18.3675 19.9922C18.1584 20.0221 17.9616 19.9659 17.7773 19.8236L16.0076 18.418C15.8233 18.2759 15.717 18.0943 15.6889 17.8732C15.6605 17.6521 15.7136 17.4441 15.8481 17.2493ZM18.6834 5.51367L16.9137 6.91924C16.7294 7.06139 16.5326 7.11759 16.3235 7.08783C16.1143 7.05788 15.9424 6.94549 15.8077 6.75065C15.6732 6.55599 15.6201 6.34803 15.6485 6.12675C15.6766 5.90566 15.7829 5.72404 15.9672 5.58189L17.7369 4.17632C17.9212 4.03416 18.118 3.97797 18.3271 4.00773C18.5363 4.03768 18.7082 4.14998 18.8429 4.34463C18.9773 4.53947 19.0304 4.74744 19.0021 4.96853C18.9739 5.1898 18.8677 5.37152 18.6834 5.51367ZM5.96642 14.8796H4.8969C4.37364 14.8796 3.92672 14.6836 3.55614 14.2917C3.18538 13.9 3 13.4276 3 12.8745V11.1681C3 10.615 3.18538 10.1426 3.55614 9.75089C3.92672 9.35899 4.37364 9.16304 4.8969 9.16304H8.95304L12.2159 7.10058C12.5321 6.90001 12.8509 6.89826 13.1724 7.09531C13.494 7.29219 13.6548 7.58186 13.6548 7.96433V16.0783C13.6548 16.4608 13.494 16.7504 13.1724 16.9473C12.8509 17.1444 12.5321 17.1426 12.2159 16.942L8.95304 14.8796H7.5404V18.3776C7.5404 18.6136 7.46502 18.8112 7.31427 18.9704C7.16369 19.1297 6.97674 19.2094 6.75341 19.2094C6.53008 19.2094 6.34313 19.1297 6.19255 18.9704C6.0418 18.8112 5.96642 18.6136 5.96642 18.3776V14.8796ZM12.0808 14.8882V9.15445L9.38877 10.8268H4.8969C4.81628 10.8268 4.7423 10.8623 4.67497 10.9335C4.60764 11.0047 4.57398 11.0829 4.57398 11.1681V12.8745C4.57398 12.9597 4.60764 13.0379 4.67497 13.1091C4.7423 13.1803 4.81628 13.2159 4.8969 13.2159H9.38877L12.0808 14.8882Z" fill="#212121"/>
</g>
</svg>
