<svg width="12" height="12" viewBox="0 0 12 12" fill="none" xmlns="http://www.w3.org/2000/svg">
<mask id="mask0_463_4606" style="mask-type:alpha" maskUnits="userSpaceOnUse" x="0" y="0" width="12" height="12">
<rect width="12" height="12" fill="#D9D9D9"/>
</mask>
<g mask="url(#mask0_463_4606)">
<path d="M5.99525 9.8547C5.88817 9.8547 5.78062 9.83549 5.67263 9.79708C5.56463 9.75858 5.46958 9.69833 5.3875 9.61633L4.66925 8.96345C3.78275 8.15512 2.99125 7.36103 2.29475 6.5812C1.59825 5.80137 1.25 4.96595 1.25 4.07495C1.25 3.36537 1.48925 2.77128 1.96775 2.2927C2.44633 1.8142 3.04042 1.57495 3.75 1.57495C4.15317 1.57495 4.55142 1.66791 4.94475 1.85383C5.338 2.03974 5.68975 2.34166 6 2.75958C6.31025 2.34166 6.662 2.03974 7.05525 1.85383C7.44858 1.66791 7.84683 1.57495 8.25 1.57495C8.95958 1.57495 9.55367 1.8142 10.0323 2.2927C10.5108 2.77128 10.75 3.36537 10.75 4.07495C10.75 4.97562 10.3958 5.82033 9.6875 6.60908C8.97917 7.39783 8.18942 8.18516 7.31825 8.97108L6.60763 9.61633C6.52563 9.69833 6.42983 9.75858 6.32025 9.79708C6.21058 9.83549 6.10225 9.8547 5.99525 9.8547ZM5.64038 3.5192C5.36987 3.10703 5.08508 2.80495 4.786 2.61295C4.487 2.42095 4.14167 2.32495 3.75 2.32495C3.25 2.32495 2.83333 2.49162 2.5 2.82495C2.16667 3.15828 2 3.57495 2 4.07495C2 4.4762 2.12933 4.89574 2.388 5.33358C2.64667 5.77141 2.97133 6.20666 3.362 6.63933C3.75267 7.07208 4.17592 7.49483 4.63175 7.90758C5.0875 8.32041 5.50992 8.70408 5.899 9.05858C5.92783 9.08424 5.9615 9.09708 6 9.09708C6.0385 9.09708 6.07217 9.08424 6.101 9.05858C6.49008 8.70408 6.9125 8.32041 7.36825 7.90758C7.82408 7.49483 8.24733 7.07208 8.638 6.63933C9.02867 6.20666 9.35333 5.77141 9.612 5.33358C9.87067 4.89574 10 4.4762 10 4.07495C10 3.57495 9.83333 3.15828 9.5 2.82495C9.16667 2.49162 8.75 2.32495 8.25 2.32495C7.85833 2.32495 7.513 2.42095 7.214 2.61295C6.91492 2.80495 6.63013 3.10703 6.35962 3.5192C6.31729 3.58328 6.26408 3.63137 6.2 3.66345C6.13592 3.69545 6.06925 3.71145 6 3.71145C5.93075 3.71145 5.86408 3.69545 5.8 3.66345C5.73592 3.63137 5.68271 3.58328 5.64038 3.5192Z" fill="#9E9E9E"/>
</g>
</svg>
