<svg width="24" height="24" viewBox="0 0 24 24" fill="none" xmlns="http://www.w3.org/2000/svg">
<mask id="mask0_128_1575" style="mask-type:alpha" maskUnits="userSpaceOnUse" x="0" y="0" width="24" height="24">
<rect width="24" height="24" fill="#D9D9D9"/>
</mask>
<g mask="url(#mask0_128_1575)">
<mask id="mask1_128_1575" style="mask-type:alpha" maskUnits="userSpaceOnUse" x="0" y="0" width="24" height="24">
<rect width="24" height="24" fill="#D9D9D9"/>
</mask>
<g mask="url(#mask1_128_1575)">
<path d="M5.25 20.4464C5.03717 20.4464 4.859 20.3745 4.7155 20.2309C4.57183 20.0874 4.5 19.9092 4.5 19.6964C4.5 19.4835 4.57183 19.3054 4.7155 19.1618C4.859 19.0182 5.03717 18.9464 5.25 18.9464H18.75C18.9628 18.9464 19.141 19.0182 19.2845 19.1618C19.4282 19.3054 19.5 19.4835 19.5 19.6964C19.5 19.9092 19.4282 20.0874 19.2845 20.2309C19.141 20.3745 18.9628 20.4464 18.75 20.4464H5.25ZM8.06725 16.5616C7.08275 16.5616 6.24208 16.218 5.54525 15.5309C4.84842 14.8437 4.5 14.0143 4.5 13.0426V4.9656C4.5 4.54377 4.64775 4.1851 4.94325 3.8896C5.23875 3.5941 5.59742 3.44635 6.01925 3.44635H19.6538C20.1589 3.44635 20.5929 3.62293 20.9557 3.9761C21.3186 4.32943 21.5 4.7586 21.5 5.2636V7.8791C21.5 8.3841 21.3186 8.81327 20.9557 9.1666C20.5929 9.51977 20.1589 9.69635 19.6538 9.69635H17.6538V13.0426C17.6538 14.0143 17.3054 14.8437 16.6087 15.5309C15.9119 16.218 15.0712 16.5616 14.0865 16.5616H8.06725ZM17.6538 8.19635H19.6538C19.7499 8.19635 19.8317 8.16593 19.899 8.1051C19.9663 8.0441 20 7.96877 20 7.8791V5.2636C20 5.17393 19.9663 5.0986 19.899 5.0376C19.8317 4.97677 19.7499 4.94635 19.6538 4.94635H17.6538V8.19635Z" fill="#212121"/>
</g>
</g>
</svg>
