<svg width="12" height="12" viewBox="0 0 12 12" fill="none" xmlns="http://www.w3.org/2000/svg">
<mask id="mask0_463_4609" style="mask-type:alpha" maskUnits="userSpaceOnUse" x="0" y="0" width="12" height="12">
<rect width="12" height="12" fill="#D9D9D9"/>
</mask>
<g mask="url(#mask0_463_4609)">
<path d="M5.99525 9.8547C5.88817 9.8547 5.78062 9.83549 5.67263 9.79708C5.56463 9.75858 5.46958 9.69833 5.3875 9.61633L4.66925 8.96345C3.78275 8.15512 2.99125 7.36103 2.29475 6.5812C1.59825 5.80137 1.25 4.96595 1.25 4.07495C1.25 3.36537 1.48925 2.77128 1.96775 2.2927C2.44633 1.8142 3.04042 1.57495 3.75 1.57495C4.15317 1.57495 4.55142 1.66791 4.94475 1.85383C5.338 2.03974 5.68975 2.34166 6 2.75958C6.31025 2.34166 6.662 2.03974 7.05525 1.85383C7.44858 1.66791 7.84683 1.57495 8.25 1.57495C8.95958 1.57495 9.55367 1.8142 10.0323 2.2927C10.5108 2.77128 10.75 3.36537 10.75 4.07495C10.75 4.97562 10.3958 5.82033 9.6875 6.60908C8.97917 7.39783 8.18942 8.18516 7.31825 8.97108L6.60763 9.61633C6.52563 9.69833 6.42983 9.75858 6.32025 9.79708C6.21058 9.83549 6.10225 9.8547 5.99525 9.8547Z" fill="#9E9E9E"/>
</g>
</svg>
