<svg width="24" height="24" viewBox="0 0 24 24" fill="none" xmlns="http://www.w3.org/2000/svg">
<mask id="mask0_649_3453" style="mask-type:alpha" maskUnits="userSpaceOnUse" x="0" y="0" width="24" height="24">
<rect width="24" height="24" fill="#D9D9D9"/>
</mask>
<g mask="url(#mask0_649_3453)">
<path d="M12.1135 19C11.9342 19 11.7841 18.9408 11.6632 18.8225C11.5423 18.7044 11.4819 18.5576 11.4819 18.3824C11.4819 18.2071 11.5423 18.0604 11.6632 17.9422C11.7841 17.8239 11.9342 17.7647 12.1135 17.7647H17.6356C17.7058 17.7647 17.7665 17.7436 17.8179 17.7013C17.8691 17.6592 17.8947 17.6038 17.8947 17.5351V11.7752C17.8947 10.2009 17.3187 8.87553 16.1667 7.79918C15.0149 6.72282 13.626 6.18465 12 6.18465C10.374 6.18465 8.98512 6.72282 7.83326 7.79918C6.68126 8.87553 6.10526 10.2009 6.10526 11.7752V16.0067C6.10526 16.182 6.04477 16.3287 5.92379 16.4471C5.80295 16.5652 5.65291 16.6243 5.47368 16.6243C5.06989 16.6243 4.72337 16.4869 4.43411 16.2119C4.1447 15.9369 4 15.6019 4 15.207V13.6075C4 13.3404 4.07775 13.0957 4.23326 12.8734C4.38877 12.6511 4.59172 12.4725 4.84211 12.3374L4.88105 11.2858C4.95011 10.3894 5.18814 9.55899 5.59516 8.79462C6.00218 8.03025 6.52414 7.36483 7.16105 6.79838C7.79811 6.23193 8.53333 5.79059 9.36674 5.47435C10.2003 5.15812 11.078 5 12 5C12.922 5 13.7975 5.15812 14.6267 5.47435C15.4559 5.79059 16.1912 6.2298 16.8324 6.792C17.4737 7.3542 17.9956 8.01748 18.3983 8.78185C18.801 9.54636 19.0412 10.3768 19.1189 11.273L19.1579 12.3041C19.4029 12.417 19.6046 12.5786 19.7627 12.7887C19.9209 12.9989 20 13.2332 20 13.4918V15.3306C20 15.5891 19.9209 15.8235 19.7627 16.0336C19.6046 16.2438 19.4029 16.4053 19.1579 16.5183V17.5351C19.1579 17.9405 19.0092 18.2859 18.7118 18.5716C18.4142 18.8572 18.0555 19 17.6356 19H12.1135ZM9.63558 13.457C9.4294 13.457 9.25368 13.3887 9.10842 13.252C8.9633 13.1153 8.89074 12.946 8.89074 12.7443C8.89074 12.5426 8.9633 12.3722 9.10842 12.2329C9.25368 12.0934 9.4294 12.0237 9.63558 12.0237C9.8419 12.0237 10.0176 12.0934 10.1627 12.2329C10.308 12.3722 10.3806 12.5426 10.3806 12.7443C10.3806 12.946 10.308 13.1153 10.1627 13.252C10.0176 13.3887 9.8419 13.457 9.63558 13.457ZM14.3644 13.457C14.1581 13.457 13.9824 13.3887 13.8373 13.252C13.692 13.1153 13.6194 12.946 13.6194 12.7443C13.6194 12.5426 13.692 12.3722 13.8373 12.2329C13.9824 12.0934 14.1581 12.0237 14.3644 12.0237C14.5706 12.0237 14.7463 12.0934 14.8916 12.2329C15.0367 12.3722 15.1093 12.5426 15.1093 12.7443C15.1093 12.946 15.0367 13.1153 14.8916 13.252C14.7463 13.3887 14.5706 13.457 14.3644 13.457ZM7.26 12.1647C7.17256 10.8207 7.60007 9.67065 8.54253 8.71453C9.48498 7.75855 10.6515 7.28056 12.0421 7.28056C13.2102 7.28056 14.241 7.63399 15.1343 8.34085C16.0278 9.04772 16.57 9.96279 16.7611 11.0861C15.5648 11.0724 14.4596 10.7652 13.4453 10.1646C12.4309 9.56379 11.6523 8.74026 11.1093 7.69397C10.8955 8.71803 10.4475 9.62336 9.76526 10.41C9.08288 11.1966 8.24779 11.7815 7.26 12.1647Z" fill="#212121"/>
</g>
</svg>
