<svg width="24" height="24" viewBox="0 0 24 24" fill="none" xmlns="http://www.w3.org/2000/svg">
<mask id="mask0_649_5343" style="mask-type:alpha" maskUnits="userSpaceOnUse" x="0" y="0" width="24" height="24">
<rect width="24" height="24" fill="#D9D9D9"/>
</mask>
<g mask="url(#mask0_649_5343)">
<path d="M18.5214 20.25C17.9149 20.25 17.3747 20.0679 16.9008 19.7036C16.4269 19.3393 16.1146 18.8738 15.9639 18.3071H10.75C9.74376 18.3071 8.88502 17.9516 8.17377 17.2405C7.46269 16.5293 7.10714 15.6705 7.10714 14.6643C7.10714 13.658 7.46269 12.7993 8.17377 12.0881C8.88502 11.377 9.74376 11.0214 10.75 11.0214H12.6929C13.294 11.0214 13.8085 10.8072 14.2365 10.3788C14.6645 9.95043 14.8786 9.43549 14.8786 8.83401C14.8786 8.23238 14.6645 7.71792 14.2365 7.29066C13.8085 6.86355 13.294 6.65 12.6929 6.65H7.47896C7.31819 7.21667 7.00336 7.68214 6.53449 8.04643C6.06561 8.41071 5.52792 8.59286 4.92143 8.59286C4.17942 8.59286 3.54864 8.33324 3.02909 7.81401C2.5097 7.29479 2.25 6.66433 2.25 5.92264C2.25 5.1808 2.5097 4.54993 3.02909 4.03006C3.54864 3.51002 4.17942 3.25 4.92143 3.25C5.52792 3.25 6.06561 3.43214 6.53449 3.79643C7.00336 4.16071 7.31819 4.62619 7.47896 5.19286H12.6929C13.6991 5.19286 14.5578 5.5484 15.2691 6.25949C15.9802 6.97073 16.3357 7.82948 16.3357 8.83571C16.3357 9.84195 15.9802 10.7007 15.2691 11.4119C14.5578 12.123 13.6991 12.4786 12.6929 12.4786H10.75C10.1488 12.4786 9.63431 12.6928 9.2064 13.1212C8.77832 13.5496 8.56429 14.0645 8.56429 14.666C8.56429 15.2676 8.77832 15.7821 9.2064 16.2093C9.63431 16.6364 10.1488 16.85 10.75 16.85H15.9639C16.1247 16.2833 16.4395 15.8179 16.9084 15.4536C17.3772 15.0893 17.9149 14.9071 18.5214 14.9071C19.2634 14.9071 19.8942 15.1668 20.4138 15.686C20.9332 16.2052 21.1929 16.8357 21.1929 17.5774C21.1929 18.3192 20.9332 18.9501 20.4138 19.4699C19.8942 19.99 19.2634 20.25 18.5214 20.25ZM4.92143 7.13571C5.259 7.13571 5.54573 7.01769 5.78163 6.78163C6.01769 6.54573 6.13571 6.259 6.13571 5.92143C6.13571 5.58386 6.01769 5.29712 5.78163 5.06123C5.54573 4.82517 5.259 4.70714 4.92143 4.70714C4.58386 4.70714 4.29712 4.82517 4.06123 5.06123C3.82517 5.29712 3.70714 5.58386 3.70714 5.92143C3.70714 6.259 3.82517 6.54573 4.06123 6.78163C4.29712 7.01769 4.58386 7.13571 4.92143 7.13571Z" fill="#1C1B1F"/>
</g>
</svg>
