<svg width="24" height="24" viewBox="0 0 24 24" fill="none" xmlns="http://www.w3.org/2000/svg">
<mask id="mask0_392_3763" style="mask-type:alpha" maskUnits="userSpaceOnUse" x="0" y="0" width="24" height="24">
<rect width="24" height="24" fill="#D9D9D9"/>
</mask>
<g mask="url(#mask0_392_3763)">
<circle cx="12" cy="12" r="10" fill="#212121"/>
<path d="M7.11246 17C6.80159 17 6.53846 16.8995 6.32308 16.6986C6.10769 16.4976 6 16.2521 6 15.9621V9.4255C6 9.13545 6.10769 8.88995 6.32308 8.689C6.53846 8.48804 6.80159 8.38756 7.11246 8.38756H8.99169L9.79646 7.57383C9.89821 7.47086 10.0208 7.38938 10.1643 7.32938C10.3077 7.26928 10.4581 7.23923 10.6154 7.23923H13.1125C13.2432 7.23923 13.3528 7.28053 13.4412 7.36311C13.5297 7.44569 13.574 7.54799 13.574 7.67C13.574 7.79211 13.5297 7.89435 13.4412 7.97675C13.3528 8.05923 13.2432 8.10048 13.1125 8.10048H10.5326L9.40354 9.2488H7.11246C7.05718 9.2488 7.01179 9.26536 6.97631 9.29847C6.94082 9.33158 6.92308 9.37392 6.92308 9.4255V15.9621C6.92308 16.0136 6.94082 16.056 6.97631 16.0891C7.01179 16.1222 7.05718 16.1388 7.11246 16.1388H16.5798C16.6351 16.1388 16.6805 16.1222 16.716 16.0891C16.7515 16.056 16.7692 16.0136 16.7692 15.9621V11.5123C16.7692 11.3903 16.8135 11.288 16.902 11.2056C16.9905 11.123 17.1002 11.0817 17.2309 11.0817C17.3618 11.0817 17.4714 11.123 17.5597 11.2056C17.6481 11.288 17.6923 11.3903 17.6923 11.5123V15.9621C17.6923 16.2521 17.5846 16.4976 17.3692 16.6986C17.1538 16.8995 16.8907 17 16.5798 17H7.11246ZM15.8462 9.00957H15.0769C14.9462 9.00957 14.8365 8.96828 14.748 8.88569C14.6596 8.80311 14.6154 8.70081 14.6154 8.5788C14.6154 8.4567 14.6596 8.35445 14.748 8.27206C14.8365 8.18957 14.9462 8.14833 15.0769 8.14833H15.8462V7.43062C15.8462 7.30861 15.8904 7.20636 15.9789 7.12388C16.0674 7.04129 16.1771 7 16.3078 7C16.4387 7 16.5483 7.04129 16.6366 7.12388C16.725 7.20636 16.7692 7.30861 16.7692 7.43062V8.14833H17.5385C17.6692 8.14833 17.7788 8.18962 17.8672 8.2722C17.9557 8.35478 18 8.45708 18 8.57909C18 8.7012 17.9557 8.80344 17.8672 8.88584C17.7788 8.96833 17.6692 9.00957 17.5385 9.00957H16.7692V9.72727C16.7692 9.84928 16.725 9.95158 16.6365 10.0342C16.5479 10.1167 16.4383 10.1579 16.3075 10.1579C16.1767 10.1579 16.0671 10.1167 15.9788 10.0342C15.8904 9.95158 15.8462 9.84928 15.8462 9.72727V9.00957ZM11.8462 15.0566C12.5523 15.0566 13.1509 14.8275 13.642 14.3693C14.1331 13.9111 14.3786 13.3526 14.3786 12.6938C14.3786 12.0349 14.1331 11.4764 13.642 11.0182C13.1509 10.56 12.5523 10.331 11.8462 10.331C11.14 10.331 10.5414 10.56 10.0503 11.0182C9.55923 11.4764 9.31369 12.0349 9.31369 12.6938C9.31369 13.3526 9.55923 13.9111 10.0503 14.3693C10.5414 14.8275 11.14 15.0566 11.8462 15.0566ZM11.8462 14.1955C11.3917 14.1955 11.0098 14.0512 10.7006 13.7626C10.3913 13.4741 10.2366 13.1178 10.2366 12.6938C10.2366 12.2698 10.3913 11.9135 10.7006 11.625C11.0098 11.3364 11.3917 11.1921 11.8462 11.1921C12.3006 11.1921 12.6825 11.3364 12.9917 11.625C13.301 11.9135 13.4557 12.2698 13.4557 12.6938C13.4557 13.1178 13.301 13.4741 12.9917 13.7626C12.6825 14.0512 12.3006 14.1955 11.8462 14.1955Z" fill="white"/>
</g>
</svg>
