<svg width="24" height="24" viewBox="0 0 24 24" fill="none" xmlns="http://www.w3.org/2000/svg">
<mask id="mask0_651_7326" style="mask-type:alpha" maskUnits="userSpaceOnUse" x="0" y="0" width="24" height="24">
<rect width="24" height="24" fill="#D9D9D9"/>
</mask>
<g mask="url(#mask0_651_7326)">
<path d="M9.18945 16.4957C8.72327 16.4957 8.32862 16.3352 8.00553 16.0141C7.68243 15.6931 7.52088 15.3009 7.52088 14.8376V4.9584C7.52088 4.49498 7.68243 4.10273 8.00553 3.78166C8.32862 3.46059 8.72327 3.30005 9.18945 3.30005H13.9829C14.179 3.30005 14.3434 3.36602 14.4761 3.49797C14.6088 3.62991 14.6752 3.79336 14.6752 3.98829C14.6752 4.18339 14.6088 4.34675 14.4761 4.47839C14.3434 4.61019 14.179 4.67608 13.9829 4.67608H9.18945C9.10668 4.67608 9.03867 4.70253 8.98544 4.75543C8.93205 4.80833 8.90536 4.87599 8.90536 4.9584V14.3861C8.90536 14.4625 8.93051 14.5286 8.98082 14.5844C9.03114 14.6402 9.09476 14.6681 9.17168 14.6681C9.84635 14.0144 10.6116 13.5087 11.4675 13.1511C12.3234 12.7936 13.221 12.6149 14.1603 12.6149C15.0929 12.6149 15.9881 12.7938 16.846 13.1515C17.7039 13.5093 18.4715 14.0148 19.1488 14.6681C19.2352 14.6776 19.2989 14.6497 19.3396 14.5844C19.3804 14.5192 19.4056 14.453 19.4151 14.3861V10.0215C19.4151 9.82657 19.4815 9.66313 19.6143 9.53119C19.747 9.39939 19.9115 9.3335 20.1077 9.3335C20.304 9.3335 20.4684 9.39939 20.6009 9.53119C20.7335 9.66313 20.7998 9.82657 20.7998 10.0215V14.8376C20.7998 15.3009 20.6383 15.6931 20.3152 16.0141C19.9921 16.3352 19.5973 16.4957 19.131 16.4957H9.18945ZM14.1603 13.9907C13.5449 13.9907 12.9475 14.0848 12.3681 14.273C11.7888 14.4612 11.2583 14.7435 10.7766 15.1199H17.5439C17.0623 14.7435 16.5318 14.4612 15.9524 14.273C15.3731 14.0848 14.7758 13.9907 14.1603 13.9907ZM14.1583 6.54611C14.8258 6.54611 15.3925 6.7769 15.8582 7.23848C16.324 7.69991 16.5568 8.26233 16.5568 8.92573C16.5568 9.58913 16.3246 10.1522 15.8603 10.615C15.3958 11.0778 14.8298 11.3092 14.1622 11.3092C13.4946 11.3092 12.9279 11.0785 12.4622 10.6171C11.9965 10.1555 11.7636 9.59303 11.7636 8.92963C11.7636 8.26623 11.9959 7.70312 12.4604 7.24032C12.9247 6.77751 13.4907 6.54611 14.1583 6.54611ZM14.1603 7.92214C13.8774 7.92214 13.638 8.01946 13.4421 8.21409C13.2463 8.40872 13.1483 8.64663 13.1483 8.92779C13.1483 9.20881 13.2463 9.44664 13.4421 9.64127C13.638 9.8359 13.8774 9.93322 14.1603 9.93322C14.4431 9.93322 14.6825 9.8359 14.8783 9.64127C15.0742 9.44664 15.1721 9.20881 15.1721 8.92779C15.1721 8.64663 15.0742 8.40872 14.8783 8.21409C14.6825 8.01946 14.4431 7.92214 14.1603 7.92214ZM6.35079 20.7862C5.89045 20.8416 5.47704 20.7308 5.11055 20.4539C4.74422 20.1772 4.53336 19.8105 4.47797 19.3538L3.31343 9.87336C3.25773 9.41575 3.37282 9.00822 3.65868 8.65075C3.94455 8.29314 4.31765 8.08199 4.77799 8.01732L4.85969 8.0086C5.05617 7.97451 5.23164 8.02733 5.38611 8.16708C5.54043 8.30682 5.61759 8.48158 5.61759 8.69135C5.61759 8.86335 5.55759 9.01242 5.43758 9.13856C5.31741 9.26469 5.17156 9.34496 5.00001 9.37936H4.95016C4.86738 9.39114 4.8023 9.42638 4.75491 9.48509C4.70753 9.54395 4.68976 9.61451 4.7016 9.69677L5.87676 19.1774C5.88861 19.2597 5.92415 19.3243 5.98338 19.3714C6.04262 19.4185 6.11362 19.4362 6.1964 19.4244L17.1001 18.0853C17.2966 18.0607 17.4701 18.1057 17.6207 18.2204C17.7712 18.3352 17.8581 18.4902 17.8813 18.6852C17.9061 18.8803 17.8608 19.049 17.7454 19.1912C17.6298 19.3332 17.474 19.4156 17.2778 19.4384L6.35079 20.7862Z" fill="#212121"/>
</g>
</svg>
