<svg width="24" height="24" viewBox="0 0 24 24" fill="none" xmlns="http://www.w3.org/2000/svg">
<mask id="mask0_128_1573" style="mask-type:alpha" maskUnits="userSpaceOnUse" x="0" y="0" width="24" height="24">
<rect width="24" height="24" fill="#D9D9D9"/>
</mask>
<g mask="url(#mask0_128_1573)">
<path d="M5.25 20.558C5.0375 20.558 4.85942 20.486 4.71575 20.3422C4.57192 20.1984 4.5 20.0202 4.5 19.8077C4.5 19.595 4.57192 19.417 4.71575 19.2735C4.85942 19.1298 5.0375 19.058 5.25 19.058H18.75C18.9625 19.058 19.1406 19.1299 19.2843 19.2737C19.4281 19.4175 19.5 19.5957 19.5 19.8082C19.5 20.0209 19.4281 20.199 19.2843 20.3425C19.1406 20.4861 18.9625 20.558 18.75 20.558H5.25ZM8.06725 16.6732C7.08275 16.6732 6.24208 16.3296 5.54525 15.6425C4.84842 14.9553 4.5 14.1259 4.5 13.1542V5.0772C4.5 4.65537 4.64775 4.2967 4.94325 4.0012C5.23875 3.7057 5.59742 3.55795 6.01925 3.55795H19.6538C20.1614 3.55795 20.5961 3.73454 20.9578 4.0877C21.3193 4.44104 21.5 4.8702 21.5 5.3752V7.9907C21.5 8.4957 21.3193 8.92487 20.9578 9.2782C20.5961 9.63137 20.1614 9.80795 19.6538 9.80795H17.6538V13.1542C17.6538 14.1259 17.3054 14.9553 16.6087 15.6425C15.9119 16.3296 15.0712 16.6732 14.0865 16.6732H8.06725ZM8.06725 15.1735H14.0865C14.655 15.1735 15.1417 14.9753 15.5465 14.579C15.9513 14.1828 16.1538 13.7065 16.1538 13.1502V5.05795H6V13.154C6 13.7105 6.20242 14.1861 6.60725 14.581C7.01208 14.976 7.49875 15.1735 8.06725 15.1735ZM17.6538 8.30795H19.6538C19.7499 8.30795 19.8317 8.27754 19.899 8.2167C19.9663 8.1557 20 8.08037 20 7.9907V5.3752C20 5.28554 19.9663 5.2102 19.899 5.1492C19.8317 5.08837 19.7499 5.05795 19.6538 5.05795H17.6538V8.30795ZM8.06725 15.1735H6H16.1538H8.06725Z" fill="#9E9E9E"/>
</g>
</svg>
