<svg width="24" height="24" viewBox="0 0 24 24" fill="none" xmlns="http://www.w3.org/2000/svg">
<mask id="mask0_288_368" style="mask-type:alpha" maskUnits="userSpaceOnUse" x="0" y="0" width="24" height="24">
<rect width="24" height="24" fill="#none"/>
</mask>
<g mask="url(#mask0_288_368)">
<path d="M11 17.75C8.83717 17.75 7.00483 16.999 5.503 15.497C4.001 13.9952 3.25 12.1628 3.25 10C3.25 7.83717 4.001 6.00483 5.503 4.503C7.00483 3.001 8.83717 2.25 11 2.25C13.1628 2.25 14.9952 3.001 16.497 4.503C17.999 6.00483 18.75 7.83717 18.75 10C18.75 10.959 18.5952 11.8413 18.2855 12.647C17.976 13.4528 17.5385 14.2102 16.973 14.9192L21.4155 19.3615C21.5603 19.5065 21.6312 19.6822 21.628 19.8885C21.6247 20.0948 21.5538 20.2705 21.4155 20.4155C21.2705 20.5603 21.0933 20.6327 20.8838 20.6327C20.6741 20.6327 20.4968 20.5603 20.352 20.4155L15.9095 15.973C15.2007 16.5385 14.4449 16.976 13.6423 17.2855C12.8398 17.5952 11.959 17.75 11 17.75ZM11 16.25C12.7308 16.25 14.2052 15.641 15.423 14.423C16.641 13.2052 17.25 11.7308 17.25 10C17.25 8.26917 16.641 6.79483 15.423 5.577C14.2052 4.359 12.7308 3.75 11 3.75C9.26917 3.75 7.79483 4.359 6.577 5.577C5.359 6.79483 4.75 8.26917 4.75 10C4.75 11.7308 5.359 13.2052 6.577 14.423C7.79483 15.641 9.26917 16.25 11 16.25Z" fill="#none"/>
</g>
</svg>
