<svg width="24" height="24" viewBox="0 0 24 24" fill="none" xmlns="http://www.w3.org/2000/svg">
<mask id="mask0_418_3160" style="mask-type:alpha" maskUnits="userSpaceOnUse" x="0" y="0" width="24" height="24">
<rect x="24" y="24" width="24" height="24" transform="rotate(180 24 24)" fill="#D9D9D9"/>
</mask>
<g mask="url(#mask0_418_3160)">
<path d="M12.4802 10.4587L15.6315 13.6097C15.6748 13.6532 15.709 13.7018 15.734 13.7554C15.759 13.8089 15.7715 13.8664 15.7715 13.9277C15.7715 14.0502 15.7301 14.1567 15.6472 14.2472C15.5644 14.3375 15.4552 14.3827 15.3197 14.3827H8.68123C8.54573 14.3827 8.43657 14.337 8.35373 14.2457C8.2709 14.1545 8.22948 14.0481 8.22948 13.9264C8.22948 13.8959 8.27623 13.7904 8.36973 13.6097L11.5207 10.4587C11.5931 10.3862 11.6679 10.3333 11.7452 10.2999C11.8226 10.2666 11.9077 10.2499 12.0005 10.2499C12.0933 10.2499 12.1784 10.2666 12.2557 10.2999C12.3331 10.3333 12.4079 10.3862 12.4802 10.4587Z" fill="#1C1B1F"/>
</g>
</svg>
