<svg width="12" height="12" viewBox="0 0 12 12" fill="none" xmlns="http://www.w3.org/2000/svg">
<mask id="mask0_463_4628" style="mask-type:alpha" maskUnits="userSpaceOnUse" x="0" y="0" width="12" height="12">
<rect width="12" height="12" fill="#D9D9D9"/>
</mask>
<g mask="url(#mask0_463_4628)">
<path d="M3.01925 8.75L2.01825 9.75088C1.876 9.89321 1.71238 9.92546 1.52738 9.84762C1.34246 9.76971 1.25 9.62946 1.25 9.42688V2.15387C1.25 1.90129 1.3375 1.6875 1.5125 1.5125C1.6875 1.3375 1.90129 1.25 2.15387 1.25H9.84613C10.0987 1.25 10.3125 1.3375 10.4875 1.5125C10.6625 1.6875 10.75 1.90129 10.75 2.15387V7.84613C10.75 8.09871 10.6625 8.3125 10.4875 8.4875C10.3125 8.6625 10.0987 8.75 9.84613 8.75H3.01925ZM2.7 8H9.84613C9.88463 8 9.91988 7.98396 9.95188 7.95188C9.98396 7.91988 10 7.88462 10 7.84613V2.15387C10 2.11537 9.98396 2.08012 9.95188 2.04812C9.91988 2.01604 9.88463 2 9.84613 2H2.15387C2.11537 2 2.08013 2.01604 2.04813 2.04812C2.01604 2.08012 2 2.11537 2 2.15387V8.69238L2.7 8ZM3.5 6.875H6.5C6.60642 6.875 6.6955 6.83908 6.76725 6.76725C6.83908 6.6955 6.875 6.60642 6.875 6.5C6.875 6.39358 6.83908 6.3045 6.76725 6.23275C6.6955 6.16092 6.60642 6.125 6.5 6.125H3.5C3.39358 6.125 3.3045 6.16092 3.23275 6.23275C3.16092 6.3045 3.125 6.39358 3.125 6.5C3.125 6.60642 3.16092 6.6955 3.23275 6.76725C3.3045 6.83908 3.39358 6.875 3.5 6.875ZM3.5 5.375H8.5C8.60642 5.375 8.6955 5.33908 8.76725 5.26725C8.83908 5.1955 8.875 5.10642 8.875 5C8.875 4.89358 8.83908 4.8045 8.76725 4.73275C8.6955 4.66092 8.60642 4.625 8.5 4.625H3.5C3.39358 4.625 3.3045 4.66092 3.23275 4.73275C3.16092 4.8045 3.125 4.89358 3.125 5C3.125 5.10642 3.16092 5.1955 3.23275 5.26725C3.3045 5.33908 3.39358 5.375 3.5 5.375ZM3.5 3.875H8.5C8.60642 3.875 8.6955 3.83908 8.76725 3.76725C8.83908 3.6955 8.875 3.60642 8.875 3.5C8.875 3.39358 8.83908 3.3045 8.76725 3.23275C8.6955 3.16092 8.60642 3.125 8.5 3.125H3.5C3.39358 3.125 3.3045 3.16092 3.23275 3.23275C3.16092 3.3045 3.125 3.39358 3.125 3.5C3.125 3.60642 3.16092 3.6955 3.23275 3.76725C3.3045 3.83908 3.39358 3.875 3.5 3.875Z" fill="#9E9E9E"/>
</g>
</svg>
