<svg width="24" height="24" viewBox="0 0 24 24" fill="none" xmlns="http://www.w3.org/2000/svg">
<mask id="mask0_288_371" style="mask-type:alpha" maskUnits="userSpaceOnUse" x="0" y="0" width="24" height="24">
<rect width="24" height="24" fill="#none"/>
</mask>
<g mask="url(#mask0_288_371)">
<path d="M4.85 17.897C4.60917 17.897 4.40734 17.8176 4.24452 17.6589C4.08151 17.4999 4 17.3029 4 17.0679C4 16.833 4.08151 16.6362 4.24452 16.4775C4.40734 16.3189 4.60917 16.2396 4.85 16.2396H6.04878V10.2035C6.04878 8.71728 6.51921 7.40317 7.46007 6.26118C8.40073 5.11919 9.60849 4.38878 11.0833 4.06994V3.38144C11.0833 2.99777 11.2209 2.67156 11.4962 2.40283C11.7714 2.13428 12.1055 2 12.4986 2C12.8919 2 13.2265 2.13428 13.5024 2.40283C13.7786 2.67156 13.9167 2.99777 13.9167 3.38144V4.06994C15.3915 4.38878 16.5993 5.11919 17.5399 6.26118C18.4808 7.40317 18.9512 8.71728 18.9512 10.2035V16.2396H20.15C20.3908 16.2396 20.5927 16.319 20.7555 16.4777C20.9185 16.6367 21 16.8337 21 17.0687C21 17.3036 20.9185 17.5004 20.7555 17.6591C20.5927 17.8177 20.3908 17.897 20.15 17.897H4.85ZM12.498 21C11.9342 21 11.4521 20.8044 11.0519 20.4132C10.6514 20.0219 10.4512 19.5516 10.4512 19.0022H14.5488C14.5488 19.5535 14.348 20.0242 13.9464 20.4145C13.5448 20.8048 13.062 21 12.498 21ZM7.74878 16.2396H17.2512V10.2035C17.2512 8.92413 16.7874 7.83215 15.8598 6.92758C14.9319 6.02283 13.812 5.57046 12.5 5.57046C11.188 5.57046 10.0681 6.02283 9.14023 6.92758C8.2126 7.83215 7.74878 8.92413 7.74878 10.2035V16.2396Z" fill="#none"/>
</g>
</svg>
