<svg width="24" height="24" viewBox="0 0 24 24" fill="none" xmlns="http://www.w3.org/2000/svg">
<mask id="mask0_128_1566" style="mask-type:alpha" maskUnits="userSpaceOnUse" x="0" y="0" width="24" height="24">
<rect width="24" height="24" fill="#D9D9D9"/>
</mask>
<g mask="url(#mask0_128_1566)">
<mask id="mask1_128_1566" style="mask-type:alpha" maskUnits="userSpaceOnUse" x="0" y="1" width="24" height="24">
<rect y="1" width="24" height="24" fill="#D9D9D9"/>
</mask>
<g mask="url(#mask1_128_1566)">
<mask id="mask2_128_1566" style="mask-type:alpha" maskUnits="userSpaceOnUse" x="0" y="1" width="24" height="24">
<rect y="1" width="24" height="24" fill="#D9D9D9"/>
</mask>
<g mask="url(#mask2_128_1566)">
<path d="M20.4615 18.6423L18.0923 17.677L20.0038 12.6193L22.1 16.7923C22.359 17.2936 22.2783 17.7824 21.8578 18.2588C21.4373 18.7349 20.9719 18.8628 20.4615 18.6423ZM14.523 17.7115L15.4538 8.91926C15.4871 8.61792 15.6253 8.41984 15.8683 8.32501C16.1113 8.23017 16.3821 8.23726 16.6808 8.34626L18.9885 9.22301C19.2604 9.33584 19.4401 9.50667 19.5278 9.73551C19.6156 9.96451 19.5987 10.2373 19.477 10.554L16.7963 17.7115H14.523ZM7.21928 17.7115L4.57703 10.5923C4.46803 10.2949 4.4462 10.0197 4.51153 9.76651C4.57703 9.51317 4.74887 9.33201 5.02703 9.22301L7.33453 8.34626C7.6257 8.22692 7.89462 8.21792 8.14128 8.31926C8.38812 8.42059 8.5282 8.60776 8.56153 8.88076L9.47703 17.7115H7.21928ZM3.40003 18.6423C2.90903 18.8398 2.47087 18.7142 2.08553 18.2655C1.70037 17.8167 1.6437 17.3384 1.91553 16.8308L4.04628 12.6193L5.92303 17.677L3.40003 18.6423ZM10.6693 17.7115L9.62303 7.57701C9.5897 7.27434 9.6817 7.02242 9.89903 6.82126C10.1164 6.61992 10.3667 6.51926 10.65 6.51926H13.35C13.6719 6.51926 13.9318 6.62467 14.1298 6.83551C14.3279 7.04651 14.4104 7.30651 14.377 7.61551L13.3308 17.7115H10.6693Z" fill="#212121"/>
</g>
</g>
</g>
</svg>
