<svg width="24" height="24" viewBox="0 0 24 24" fill="none" xmlns="http://www.w3.org/2000/svg">
<mask id="mask0_649_4525" style="mask-type:alpha" maskUnits="userSpaceOnUse" x="0" y="0" width="24" height="24">
<rect width="24" height="24" fill="none"/>
</mask>
<g mask="url(#mask0_649_4525)">
<path d="M5.43345 18.6038C5.01478 18.6038 4.6564 18.4552 4.35829 18.158C4.06019 17.8608 3.91113 17.5035 3.91113 17.0861V4.84912C3.91113 4.43173 4.06019 4.07443 4.35829 3.77722C4.6564 3.48002 5.01478 3.33142 5.43345 3.33142H16.7046C17.1233 3.33142 17.4817 3.48002 17.7798 3.77722C18.0779 4.07443 18.2269 4.43173 18.2269 4.84912V10.0954C18.2269 10.2738 18.1664 10.4233 18.0452 10.5439C17.9241 10.6647 17.7741 10.725 17.5951 10.725C17.416 10.725 17.2661 10.6647 17.1452 10.5439C17.0243 10.4233 16.9638 10.2738 16.9638 10.0954V4.84912C16.9638 4.78448 16.9367 4.72529 16.8827 4.67156C16.8288 4.61769 16.7694 4.59075 16.7046 4.59075H5.43345C5.36861 4.59075 5.30924 4.61769 5.25534 4.67156C5.20131 4.72529 5.17429 4.78448 5.17429 4.84912V17.0861C5.17429 17.1508 5.20131 17.21 5.25534 17.2637C5.30924 17.3176 5.36861 17.3445 5.43345 17.3445H9.69261C9.87155 17.3445 10.0215 17.4049 10.1425 17.5256C10.2636 17.6464 10.3242 17.796 10.3242 17.9744C10.3242 18.1529 10.2636 18.3024 10.1425 18.4229C10.0215 18.5435 9.87155 18.6038 9.69261 18.6038H5.43345ZM5.17429 17.3445V4.59075V10.788V10.725V17.3445ZM7.06903 13.7293C7.06903 13.9077 7.12959 14.0572 7.25071 14.1778C7.37169 14.2983 7.52166 14.3585 7.70061 14.3585H9.8204C9.99934 14.3585 10.1494 14.2982 10.2705 14.1774C10.3915 14.0568 10.452 13.9072 10.452 13.7287C10.452 13.5503 10.3915 13.4007 10.2705 13.2801C10.1494 13.1597 9.99934 13.0994 9.8204 13.0994H7.70061C7.52166 13.0994 7.37169 13.1597 7.25071 13.2803C7.12959 13.4011 7.06903 13.5507 7.06903 13.7293ZM7.06903 10.4678C7.06903 10.6464 7.12959 10.7959 7.25071 10.9164C7.37169 11.037 7.52166 11.0973 7.70061 11.0973H12.5347C12.7137 11.0973 12.8636 11.0369 12.9846 10.9162C13.1057 10.7954 13.1663 10.6458 13.1663 10.4674C13.1663 10.2889 13.1057 10.1394 12.9846 10.0189C12.8636 9.89827 12.7137 9.83796 12.5347 9.83796H7.70061C7.52166 9.83796 7.37169 9.89834 7.25071 10.0191C7.12959 10.1398 7.06903 10.2894 7.06903 10.4678ZM7.06903 7.20659C7.06903 7.38499 7.12959 7.5345 7.25071 7.65512C7.37169 7.7756 7.52166 7.83583 7.70061 7.83583H14.4374C14.6164 7.83583 14.7664 7.77553 14.8873 7.65491C15.0085 7.53416 15.069 7.3845 15.069 7.20596C15.069 7.02755 15.0085 6.87804 14.8873 6.75743C14.7664 6.63695 14.6164 6.57671 14.4374 6.57671H7.70061C7.52166 6.57671 7.37169 6.63709 7.25071 6.75785C7.12959 6.87846 7.06903 7.02804 7.06903 7.20659ZM16.1217 20.3314C15.0702 20.3314 14.1757 19.9638 13.4383 19.2287C12.7009 18.4935 12.3322 17.6018 12.3322 16.5534C12.3322 15.5051 12.7009 14.6134 13.4383 13.8782C14.1757 13.143 15.0702 12.7754 16.1217 12.7754C17.1732 12.7754 18.0676 13.143 18.805 13.8782C19.5424 14.6134 19.9111 15.5051 19.9111 16.5534C19.9111 17.6018 19.5424 18.4935 18.805 19.2287C18.0676 19.9638 17.1732 20.3314 16.1217 20.3314ZM16.1217 16.5534C16.4725 16.5534 16.7708 16.431 17.0164 16.1861C17.262 15.9413 17.3848 15.6439 17.3848 15.2941C17.3848 14.9443 17.262 14.6469 17.0164 14.4021C16.7708 14.1572 16.4725 14.0348 16.1217 14.0348C15.7708 14.0348 15.4725 14.1572 15.2269 14.4021C14.9813 14.6469 14.8585 14.9443 14.8585 15.2941C14.8585 15.6439 14.9813 15.9413 15.2269 16.1861C15.4725 16.431 15.7708 16.5534 16.1217 16.5534ZM16.1217 19.0721C16.4953 19.0721 16.8362 19.0029 17.1444 18.8645C17.4526 18.7263 17.726 18.5258 17.9646 18.2632C18.038 18.1845 18.0664 18.096 18.0497 17.9977C18.0328 17.8992 17.9764 17.8203 17.8804 17.7611C17.617 17.6125 17.3386 17.5054 17.0454 17.4398C16.7524 17.3742 16.4445 17.3413 16.1217 17.3413C15.7989 17.3413 15.4909 17.3763 15.1979 17.4463C14.9047 17.5163 14.6264 17.6212 14.3629 17.7611C14.2669 17.8116 14.2105 17.8883 14.1937 17.9912C14.177 18.0939 14.2053 18.1845 14.2787 18.2632C14.5173 18.5258 14.7907 18.7263 15.0989 18.8645C15.4071 19.0029 15.748 19.0721 16.1217 19.0721Z" fill="none"/>
</g>
</svg>
