<svg width="13" height="12" viewBox="0 0 13 12" fill="none" xmlns="http://www.w3.org/2000/svg">
<mask id="mask0_490_955" style="mask-type:alpha" maskUnits="userSpaceOnUse" x="0" y="0" width="13" height="12">
<rect width="12.2136" height="12" transform="matrix(-1 0 0 1 13 0)" fill="none"/>
</mask>
<g mask="url(#mask0_490_955)">
<path d="M8.32592 6.00001L4.49248 9.76638C4.39138 9.86572 4.3421 9.98267 4.34465 10.1173C4.34728 10.2519 4.39914 10.3689 4.50024 10.4683C4.60143 10.5676 4.72051 10.6173 4.85749 10.6173C4.99447 10.6173 5.11356 10.5676 5.21474 10.4683L9.11853 6.64038C9.21056 6.54997 9.27875 6.44867 9.32311 6.33651C9.36747 6.22434 9.38965 6.11217 9.38965 6.00001C9.38965 5.88784 9.36747 5.77567 9.32311 5.66351C9.27875 5.55134 9.21056 5.45005 9.11853 5.35963L5.21474 1.52401C5.11356 1.42467 4.99316 1.3763 4.85355 1.37888C4.71394 1.38147 4.59359 1.43242 4.49248 1.53176C4.39138 1.63109 4.34083 1.74809 4.34083 1.88276C4.34083 2.01734 4.39138 2.1343 4.49248 2.23363L8.32592 6.00001Z" fill="none"/>
</g>
</svg>
