<svg width="24" height="24" viewBox="0 0 24 24" fill="none" xmlns="http://www.w3.org/2000/svg">
<mask id="mask0_649_6977" style="mask-type:alpha" maskUnits="userSpaceOnUse" x="0" y="0" width="24" height="24">
<rect width="24" height="24" fill="#D9D9D9"/>
</mask>
<g mask="url(#mask0_649_6977)">
<path d="M9.2 12.7361C9.00136 12.7361 8.83507 12.6683 8.70113 12.5326C8.56704 12.3971 8.5 12.2288 8.5 12.0278C8.5 11.8268 8.56704 11.6585 8.70113 11.523C8.83507 11.3873 9.00136 11.3194 9.2 11.3194H14.8C14.9986 11.3194 15.1649 11.3873 15.2989 11.523C15.433 11.6585 15.5 11.8268 15.5 12.0278C15.5 12.2288 15.433 12.3971 15.2989 12.5326C15.1649 12.6683 14.9986 12.7361 14.8 12.7361H9.2ZM9.2 8.95833C9.00136 8.95833 8.83507 8.89049 8.70113 8.75481C8.56704 8.61928 8.5 8.45101 8.5 8.25C8.5 8.04899 8.56704 7.88072 8.70113 7.74519C8.83507 7.60951 9.00136 7.54167 9.2 7.54167H14.8C14.9986 7.54167 15.1649 7.60951 15.2989 7.74519C15.433 7.88072 15.5 8.04899 15.5 8.25C15.5 8.45101 15.433 8.61928 15.2989 8.75481C15.1649 8.89049 14.9986 8.95833 14.8 8.95833H9.2ZM6.4 14.1528H13.4C13.8152 14.1528 14.1992 14.2436 14.5522 14.4253C14.9053 14.6069 15.2051 14.8636 15.4515 15.1952L17.6 18.0288V5.70732C17.6 5.62248 17.5731 5.55282 17.5193 5.49836C17.4654 5.4439 17.3966 5.41667 17.3128 5.41667H6.68723C6.60339 5.41667 6.53456 5.4439 6.48073 5.49836C6.42691 5.55282 6.4 5.62248 6.4 5.70732V14.1528ZM6.68723 19.5833H17.0094L14.3494 16.0617C14.2321 15.9054 14.0925 15.7843 13.9304 15.6984C13.7683 15.6124 13.5915 15.5694 13.4 15.5694H6.4V19.2927C6.4 19.3775 6.42691 19.4472 6.48073 19.5016C6.53456 19.5561 6.60339 19.5833 6.68723 19.5833ZM17.3128 21H6.68723C6.21574 21 5.81667 20.8347 5.49 20.5042C5.16333 20.1736 5 19.7698 5 19.2927V5.70732C5 5.23022 5.16333 4.82639 5.49 4.49583C5.81667 4.16528 6.21574 4 6.68723 4H17.3128C17.7843 4 18.1833 4.16528 18.51 4.49583C18.8367 4.82639 19 5.23022 19 5.70732V19.2927C19 19.7698 18.8367 20.1736 18.51 20.5042C18.1833 20.8347 17.7843 21 17.3128 21Z" fill="#212121"/>
</g>
</svg>
